<?xml version="1.0" standalone="no"?>
<!DOCTYPE svg PUBLIC "-//W3C//DTD SVG 20010904//EN"
 "http://www.w3.org/TR/2001/REC-SVG-20010904/DTD/svg10.dtd">
<svg version="1.0" xmlns="http://www.w3.org/2000/svg"
 width="40.000000pt" height="47.000000pt" viewBox="0 0 40.000000 47.000000"
 preserveAspectRatio="xMidYMid meet">

<g transform="translate(0.000000,47.000000) scale(0.100000,-0.100000)"
fill="#000000" stroke="none">
<path d="M101 244 c-51 -124 -91 -228 -88 -231 3 -3 46 22 95 56 49 34 92 61
96 61 4 0 48 -29 98 -65 50 -36 92 -64 95 -62 5 6 -188 467 -196 467 -3 0 -48
-102 -100 -226z m198 -19 c44 -104 78 -192 76 -194 -2 -2 -40 22 -83 53 -44
31 -84 56 -89 56 -5 0 -45 -25 -88 -55 -43 -30 -81 -53 -83 -50 -3 2 26 77 63
167 112 269 106 256 116 233 5 -11 45 -105 88 -210z"/>
<path d="M124 235 c-39 -96 -69 -175 -66 -175 2 0 35 23 73 51 l69 51 62 -44
c93 -66 91 -65 75 -26 -7 18 -40 97 -72 176 -32 78 -61 142 -64 142 -3 0 -38
-79 -77 -175z m102 -19 c6 -24 4 -26 -30 -26 -40 0 -41 2 -25 51 21 66 21 66
35 33 7 -17 16 -43 20 -58z"/>
<path d="M186 235 c-10 -26 -7 -35 9 -35 17 0 19 18 6 38 -7 11 -10 10 -15 -3z"/>
</g>
</svg>
